<svg width="563" height="702" viewBox="0 0 563 702" fill="none" xmlns="http://www.w3.org/2000/svg">
<path d="M307.761 64.175C306.365 64.175 305.032 63.591 304.085 62.5644L247.88 1.61054C246.933 0.583956 245.6 0 244.204 0H14.8154C12.054 0 9.81543 2.23858 9.81543 5V602.019C9.81543 603.275 10.2882 604.485 11.1396 605.409L88.0919 688.862C89.0385 689.889 90.3713 690.473 91.7677 690.473H530.946C533.708 690.473 535.946 688.234 535.946 685.473V69.175C535.946 66.4136 533.708 64.175 530.946 64.175H307.761Z" fill="black" fill-opacity="0.3"/>
<path d="M184.156 696.113C184.156 698.875 181.918 701.113 179.156 701.113H87.7039C86.3075 701.113 84.9748 700.53 84.0282 699.503L1.32433 609.819C0.472789 608.896 0 607.686 0 606.43V528.278C0 525.516 2.23858 523.278 5 523.278H14.6304C17.3918 523.278 19.6304 525.516 19.6304 528.278V597.613C19.6304 598.869 20.1032 600.079 20.9547 601.002L92.1585 678.218C93.1051 679.244 94.4379 679.828 95.8342 679.828H179.156C181.918 679.828 184.156 682.067 184.156 684.828V696.113Z" fill="#C4A459"/>
<path d="M433.533 38.6399C436.487 41.8434 434.214 47.0294 429.857 47.0294H311.18C309.783 47.0294 308.451 46.4454 307.504 45.4189L280.736 16.3895C277.782 13.186 280.054 8 284.412 8H403.089C404.485 8 405.818 8.58395 406.765 9.61054L433.533 38.6399Z" fill="#C4A459"/>
<path d="M543.87 313.738C540.563 311.355 535.946 313.718 535.946 317.794V498.356C535.946 502.908 541.536 505.092 544.622 501.745L561.676 483.25C562.528 482.327 563 481.117 563 479.861V330.087C563 328.48 562.228 326.971 560.924 326.031L543.87 313.738Z" fill="#C4A459"/>
</svg>
