<svg width="593" height="575" viewBox="0 0 593 575" fill="none" xmlns="http://www.w3.org/2000/svg">
<path d="M586 62.8872C586 61.4041 585.342 59.9975 584.203 59.0475L524.391 9.16029C523.492 8.4106 522.359 8 521.189 8H35C32.2386 8 30 10.2386 30 13V502.535V569.985C30 572.752 32.2476 574.993 35.0147 574.985L581.015 573.376C583.77 573.368 586 571.132 586 568.376V62.8872Z" fill="black" fill-opacity="0.3"/>
<path d="M21.2112 403.766C24.5327 405.998 29 403.618 29 399.616V218.166C29 213.698 23.5868 211.473 20.445 214.65L1.44505 233.86C0.519251 234.796 0 236.06 0 237.376V386.848C0 388.513 0.829027 390.069 2.21116 390.998L21.2112 403.766Z" fill="#C4A459"/>
<path d="M472 15.4646V0H534.348L593 54.8504V113H576.462V61.2554L527.493 15.4646H472Z" fill="#C4A459"/>
</svg>
