<svg width="600" height="372" viewBox="0 0 600 372" fill="none" xmlns="http://www.w3.org/2000/svg">
<path d="M57.4167 7.5C55.8901 7.5 54.4471 8.19746 53.4986 9.39377L11.8465 61.9322C11.2923 62.6313 10.9352 63.466 10.8123 64.3497L6.04004 98.662V359.5C6.04004 362.261 8.27862 364.5 11.04 364.5H540.31C541.819 364.5 543.248 363.818 544.197 362.645L590.927 304.875C591.647 303.986 592.04 302.876 592.04 301.731V272.624V12.5C592.04 9.73858 589.801 7.5 587.04 7.5H57.4167Z" fill="black" fill-opacity="0.3"/>
<path d="M583.887 246C583.887 243.239 586.125 241 588.887 241H594.565C597.327 241 599.565 243.239 599.565 246V306.502C599.565 307.715 599.124 308.887 598.324 309.8L545.449 370.072C544.499 371.154 543.13 371.774 541.69 371.774H490C487.239 371.774 485 369.536 485 366.774V358.9C485 356.139 487.239 353.9 490 353.9H535.196C536.636 353.9 538.006 353.28 538.955 352.197L582.645 302.391C583.445 301.479 583.887 300.307 583.887 299.094V246Z" fill="#C4A459"/>
<path d="M16.2736 126.295C16.2736 129.056 14.035 131.295 11.2736 131.295H5.59473C2.83331 131.295 0.594727 129.056 0.594727 126.295L0.594727 65.7928C0.594727 64.5794 1.03593 63.4075 1.83609 62.4954L54.7113 2.22339C55.6607 1.14122 57.0304 0.520752 58.47 0.520752L110.16 0.520752C112.921 0.520752 115.16 2.75933 115.16 5.52075V13.3946C115.16 16.1561 112.921 18.3946 110.16 18.3946H64.9637C63.5241 18.3946 62.1543 19.0152 61.2049 20.0974L17.5148 69.9042C16.7147 70.8162 16.2736 71.9881 16.2736 73.2013V126.295Z" fill="#C4A459"/>
</svg>
