<svg width="32" height="32" viewBox="0 0 32 32" fill="none" xmlns="http://www.w3.org/2000/svg">
<path d="M16 22C14.9669 22 13.9338 21.6611 13.0525 20.9744L0 10.825V25C0 26.6562 1.34312 28 3 28H29C30.6569 28 32 26.6569 32 25V10.825L18.95 20.9813C18.0688 21.6625 17.0312 22 16 22ZM1.01813 9.08125L14.2806 19.4C15.2925 20.1875 16.71 20.1875 17.7219 19.4L30.9844 9.08125C31.5688 8.58125 32 7.8125 32 7C32 5.34312 30.6562 4 29 4H3C1.34312 4 0 5.34312 0 7C0 7.8125 0.375625 8.58125 1.01813 9.08125Z" fill="#C4A459"/>
</svg>
