<svg xmlns="http://www.w3.org/2000/svg" fill="none" viewBox="0 0 20 20" height="20" width="20">
<path stroke-linejoin="round" stroke-linecap="round" stroke="black" d="M13.333 2.5H0.833008V13.3333H13.333V2.5Z"></path>
<path stroke-linejoin="round" stroke-linecap="round" stroke="black" d="M13.333 6.66797H16.6663L19.1663 9.16797V13.3346H13.333V6.66797Z"></path>
<path stroke-linejoin="round" stroke-linecap="round" stroke="black" d="M4.58333 17.4987C5.73393 17.4987 6.66667 16.566 6.66667 15.4154C6.66667 14.2648 5.73393 13.332 4.58333 13.332C3.43274 13.332 2.5 14.2648 2.5 15.4154C2.5 16.566 3.43274 17.4987 4.58333 17.4987Z"></path>
<path stroke-linejoin="round" stroke-linecap="round" stroke="black" d="M15.4163 17.4987C16.5669 17.4987 17.4997 16.566 17.4997 15.4154C17.4997 14.2648 16.5669 13.332 15.4163 13.332C14.2657 13.332 13.333 14.2648 13.333 15.4154C13.333 16.566 14.2657 17.4987 15.4163 17.4987Z"></path>
</svg>
