<svg width="32" height="32" viewBox="0 0 32 32" fill="none" xmlns="http://www.w3.org/2000/svg">
<g clip-path="url(#clip0_18_1688)">
<path d="M31.5 2H0.5V18H31.5V2Z" fill="#2A75E6"/>
<path d="M31.5 10H0.5V18H31.5V10Z" fill="#F9D549"/>
<path d="M17.5091 2H17.4903C17.095 2.00007 16.7159 2.15716 16.4363 2.43672C16.1568 2.71628 15.9998 3.09542 15.9998 3.49075V1.99075C15.9998 1.59538 15.8427 1.2162 15.5632 0.936631C15.2836 0.657061 14.9044 0.5 14.5091 0.5H14.4903C14.095 0.500066 13.7159 0.657156 13.4363 0.936719C13.1568 1.21628 12.9998 1.59542 12.9998 1.99075V2.49075C12.9998 2.09538 12.8427 1.7162 12.5632 1.43663C12.2836 1.15706 11.9044 1 11.5091 1C11.1137 1.00007 10.7346 1.15716 10.4551 1.43672C10.1756 1.71628 10.0186 2.09542 10.0186 2.49075V9.5H18.9998V3.49075C18.9998 3.09538 18.8427 2.7162 18.5632 2.43663C18.2836 2.15706 17.9044 2 17.5091 2Z" fill="#FFD4CF"/>
<path d="M11.875 6.5H19V9.5H10V8.375C10 7.87772 10.1975 7.40081 10.5492 7.04917C10.9008 6.69754 11.3777 6.5 11.875 6.5Z" fill="#FBB8B0"/>
<path d="M20.4907 3H20.5095C20.9048 3.00007 21.2839 3.15716 21.5635 3.43672C21.843 3.71628 22 4.09542 22 4.49075V9C22 9.39782 21.842 9.77936 21.5607 10.0607C21.2794 10.342 20.8978 10.5 20.5 10.5C20.1022 10.5 19.7206 10.342 19.4393 10.0607C19.158 9.77936 19 9.39782 19 9V4.49075C19 4.09538 19.1571 3.7162 19.4366 3.43663C19.7162 3.15706 20.0954 3 20.4907 3Z" fill="#FFD4CF"/>
<path d="M19 7.5H12.3857C11.8425 7.5 11.314 7.67697 10.8803 8.00412C10.4465 8.33128 10.1312 8.79082 9.98194 9.31319L9.5 11L11.5 15.5V22.5H20V16.5L22 11.5V7.5H19Z" fill="#FFD4CF"/>
<path d="M20.5 10C20.2348 10 19.9804 9.89464 19.7929 9.70711C19.6053 9.51957 19.5 9.26522 19.5 9V5C19.5 4.86739 19.4473 4.74021 19.3535 4.64645C19.2598 4.55268 19.1326 4.5 19 4.5C18.8674 4.5 18.7402 4.55268 18.6464 4.64645C18.5527 4.74021 18.5 4.86739 18.5 5V7.68488C18.499 8.56381 18.1494 9.40646 17.5279 10.028C16.9064 10.6495 16.0638 10.999 15.1849 11H14.5C14.4172 11 14.3358 11.0205 14.263 11.0598C14.1901 11.099 14.1281 11.1557 14.0826 11.2248C14.037 11.2938 14.0093 11.3731 14.002 11.4555C13.9946 11.5379 14.0078 11.6209 14.0404 11.6969L15.5 15.1026V17H16.5V15C16.5 14.9323 16.4862 14.8653 16.4595 14.8031L15.258 11.9994C15.9622 11.9872 16.6527 11.8028 17.2693 11.4623C17.8858 11.1218 18.4097 10.6356 18.7951 10.0461C18.9739 10.3377 19.2246 10.5785 19.5231 10.7455C19.8216 10.9125 20.1579 11.0002 20.5 11H22V10H20.5Z" fill="#FBB8B0"/>
<path d="M16 3.5C16.1326 3.5 16.2598 3.55268 16.3536 3.64645C16.4473 3.74021 16.5 3.86739 16.5 4V7H15.5V4C15.5 3.86739 15.5527 3.74021 15.6464 3.64645C15.7402 3.55268 15.8674 3.5 16 3.5Z" fill="#FBB8B0"/>
<path d="M13 2.5C13.1326 2.5 13.2598 2.55268 13.3536 2.64645C13.4473 2.74021 13.5 2.86739 13.5 3V7H12.5V3C12.5 2.86739 12.5527 2.74021 12.6464 2.64645C12.7402 2.55268 12.8674 2.5 13 2.5Z" fill="#FBB8B0"/>
<path d="M21.2515 29.0162C24.0667 29.5743 26.7749 30.578 29.2739 31.9892C29.1261 31.1402 28.9368 30.288 28.706 29.4325C29.6085 28.9308 30.5363 28.476 31.4857 28.07C28.0279 26.1174 24.2318 24.8365 20.2979 24.295C20.7016 25.8502 21.02 27.4262 21.2515 29.0162Z" fill="#98B04F"/>
<path d="M20.7539 25C22.7366 25.3127 24.6835 25.8205 26.5664 26.5159C24.8967 27.0965 23.2903 27.8456 21.7722 28.7514C21.5992 28.7136 21.4259 28.6774 21.2524 28.643C21.1322 27.4298 20.9661 26.2155 20.7539 25Z" fill="#798C3F"/>
<path d="M10.7343 29.0162C7.91905 29.5743 5.2109 30.5779 2.71187 31.9892C2.85962 31.1402 3.0489 30.288 3.27969 29.4325C2.37723 28.9309 1.44942 28.4762 0.5 28.0703C3.95787 26.1177 7.75393 24.8368 11.6879 24.2953C11.2841 25.8504 10.9657 27.4263 10.7343 29.0162Z" fill="#98B04F"/>
<path d="M26.5661 26.389C19.7426 23.8703 12.2441 23.8703 5.42054 26.389C4.84325 24.8255 4.26589 23.262 3.68848 21.6984C11.6299 18.7672 20.3568 18.7672 28.2982 21.6984C27.7208 23.262 27.1434 24.8255 26.5661 26.389Z" fill="#98B04F"/>
<path d="M11.2324 25C9.24974 25.3127 7.30279 25.8205 5.41992 26.5159C7.08968 27.0965 8.69602 27.8456 10.2141 28.7514C10.3871 28.7136 10.5604 28.6774 10.734 28.643C10.8541 27.4298 11.0202 26.2155 11.2324 25Z" fill="#798C3F"/>
</g>
<defs>
<clipPath id="clip0_18_1688">
<rect width="32" height="32" fill="white"/>
</clipPath>
</defs>
</svg>
