<svg width="50" height="50" viewBox="0 0 50 50" fill="none" xmlns="http://www.w3.org/2000/svg">
<g clip-path="url(#clip0_19_58)">
<path d="M49.9219 37.7931L47.6514 47.6368C47.3324 49.0284 46.1094 50.002 44.6768 50.002C20.0391 50.0001 0 29.961 0 5.32235C0 3.89071 0.973535 2.6661 2.36523 2.34872L12.209 0.0782116C13.6426 -0.254015 15.1074 0.490126 15.7031 1.84774L20.2461 12.4434C20.7771 13.6915 20.4189 15.1456 19.3691 16.003L14.1113 20.2247C17.4297 26.9845 22.9258 32.4806 29.6875 35.8009L33.9922 30.547C34.8406 29.4942 36.3057 29.13 37.5537 29.6705L48.1494 34.2125C49.4238 34.8829 50.2539 36.3673 49.9219 37.7931Z" fill="#C4A459"/>
</g>
<defs>
<clipPath id="clip0_19_58">
<rect width="50" height="50" fill="white"/>
</clipPath>
</defs>
</svg>
