<svg width="32" height="32" viewBox="0 0 32 32" fill="none" xmlns="http://www.w3.org/2000/svg">
<path d="M16 19.1696C20.4113 19.1696 23.9874 14.8784 23.9874 9.58482C23.9874 4.29127 20.4113 0 16 0C11.5888 0 8.0127 4.29127 8.0127 9.58482C8.0127 14.8784 11.5888 19.1696 16 19.1696Z" fill="#C4A459"/>
<path d="M31.6552 27.3168C30.2175 24.4414 27.5018 22.0452 23.9873 20.6074C23.0289 20.2879 21.9106 20.2879 21.1119 20.7672C19.5144 21.7257 17.917 22.2049 16 22.2049C14.083 22.2049 12.4856 21.7257 10.8881 20.7672C10.0894 20.4477 8.97114 20.2879 8.01265 20.7672C4.49822 22.2049 1.78252 24.6011 0.344801 27.4766C-0.773428 29.5533 0.983788 31.9495 3.37999 31.9495H28.62C31.0162 31.9495 32.7734 29.5533 31.6552 27.3168Z" fill="#C4A459"/>
</svg>
