<svg width="705" height="376" viewBox="0 0 705 376" fill="none" xmlns="http://www.w3.org/2000/svg">
<path d="M9.14844 352.375V19.6629C9.14844 17.4696 10.9146 15.6853 13.1078 15.6631L194.701 13.8179C195.372 13.811 196.033 13.9729 196.625 14.2884L294.565 66.5357C295.434 66.9994 296.404 67.2419 297.389 67.2419H485.846C487.041 67.2419 488.209 66.8849 489.2 66.2166L539.028 32.6188C539.689 32.1733 540.467 31.9353 541.264 31.9353H693.452C695.661 31.9353 697.452 33.7262 697.452 35.9353V352.375C697.452 354.584 695.661 356.375 693.452 356.375H13.1485C10.9393 356.375 9.14844 354.584 9.14844 352.375Z" fill="black" fill-opacity="0.3" stroke="#C4A459" stroke-width="2"/>
<path d="M704.272 119.557C704.272 122.319 702.034 124.557 699.272 124.557H690.695C687.933 124.557 685.695 122.319 685.695 119.557V39.4269C685.695 36.6655 683.456 34.4269 680.695 34.4269H539.582C538.334 34.4269 537.132 34.8934 536.21 35.7348L495.507 72.9064C494.586 73.7478 493.383 74.2143 492.135 74.2143H432.22C429.458 74.2143 427.22 71.9757 427.22 69.2143V62.2486C427.22 59.4872 429.458 57.2486 432.22 57.2486H484.441C485.689 57.2486 486.891 56.7821 487.813 55.9408L528.519 18.769C529.441 17.9276 530.643 17.4612 531.891 17.4612H699.272C702.034 17.4612 704.272 19.6998 704.272 22.4612V119.557Z" fill="#C4A459"/>
<path d="M283.484 355.073C281.644 355.063 280.769 357.334 282.14 358.562L301.029 375.489C301.395 375.818 301.871 376 302.363 376H403.897C404.389 376 404.865 375.818 405.232 375.489L423.355 359.249C424.718 358.028 423.86 355.769 422.03 355.76L283.484 355.073Z" fill="#C4A459"/>
<path d="M18.4958 66.0093C18.4958 68.7707 16.2572 71.0093 13.4958 71.0093H5C2.23858 71.0093 0 68.7707 0 66.0093V5C0 2.23858 2.23858 0 5 0H200.047C201.036 0 202.003 0.293482 202.826 0.843305L267.006 43.7493C269.731 45.5708 269.996 49.4775 267.542 51.6499L260.67 57.7321C258.963 59.2437 256.449 59.4083 254.558 58.1321L195.172 18.0358C194.345 17.4778 193.371 17.1797 192.374 17.1797H23.4958C20.7344 17.1797 18.4958 19.4183 18.4958 22.1797V66.0093Z" fill="#C4A459"/>
</svg>
